# File created by Blade
# Date/Time:  Wed Jan 21 16:14:13 2015
# Frame Rate: 120.000 fps
#------------------------------------------------------
:FULLY-SPECIFIED
:DEGREES
268
root 18.586939 35.501092 -20.276631 -170.396492 -0.482322 -178.453290
Spine -20.498518 -0.773163 1.383834
Head 9.167178 2.615214 1.147562
LeftShoulder -17.450073 -22.086961 7.165500
LeftArm -28.313773 -14.096188 -42.192023
LeftForeArm 1.434825 -0.000000 -2.586566
LeftHand -6.079009 -0.000000 -5.728735
LeftHandThumb1 -26.253704 0.000000 33.147579
RightShoulder -16.618472 -13.993408 3.077376
RightArm 1.321816 38.228379 61.682783
RightForeArm -28.642677 -0.000000 4.877841
RightHand -2.622075 -0.000000 15.006667
RightHandThumb1 -24.326973 -0.000000 -32.862282
LeftUpLeg -1.465787 8.797950 0.327707
LeftLeg -5.352873 -0.000000 0.000000
LeftFoot -22.437185 26.488796 -12.827319
LeftToeBase 27.247886 -0.000000 -0.000000
RightUpLeg -3.125949 -5.786068 2.350867
RightLeg -2.298722 -0.000000 0.000000
RightFoot -21.754496 -27.391021 13.684272
RightToeBase 23.897218 -0.000000 -0.000000
269
root 18.590000 35.496287 -20.312578 -170.587769 -0.447281 -178.421117
Spine -20.368574 -0.733845 1.350917
Head 9.015829 2.518623 1.214442
LeftShoulder -17.244193 -22.000829 7.617750
LeftArm -27.526188 -13.964299 -40.654381
LeftForeArm 1.776208 -0.000000 -2.921818
LeftHand -6.159477 -0.000000 -5.214000
LeftHandThumb1 -26.253704 0.000000 33.147579
RightShoulder -16.505916 -14.082222 2.748900
RightArm 1.443202 38.455869 60.216188
RightForeArm -28.408094 -0.000000 4.825357
RightHand -2.555114 -0.000000 13.816395
RightHandThumb1 -24.326973 -0.000000 -32.862282
LeftUpLeg -1.196031 8.758145 0.401632
LeftLeg -5.370018 -0.000000 0.000000
LeftFoot -22.538808 26.546729 -12.876411
LeftToeBase 27.188585 -0.000000 -0.000000
RightUpLeg -2.863597 -5.874705 2.366269
RightLeg -2.333993 -0.000000 0.000000
RightFoot -21.765758 -27.290428 13.684704
RightToeBase 23.900647 -0.000000 -0.000000
270
root 18.590807 35.493699 -20.335626 -170.715791 -0.300200 -178.387620
Spine -20.273715 -0.571106 1.311567
Head 8.823032 2.500953 1.285785
LeftShoulder -16.953544 -22.068932 8.041625
LeftArm -26.828137 -12.708697 -39.627672
LeftForeArm 1.111244 -0.000000 -2.966379
LeftHand -6.325226 0.000000 -4.900874
LeftHandThumb1 -26.253704 0.000000 33.147579
RightShoulder -16.374248 -14.096434 2.423342
RightArm 1.531976 38.681555 58.688503
RightForeArm -28.299211 -0.000000 4.784434
RightHand -2.445935 -0.000000 12.866149
RightHandThumb1 -24.326973 -0.000000 -32.862282
LeftUpLeg -1.003966 8.869113 0.440270
LeftLeg -5.380528 -0.000000 0.000000
LeftFoot -22.618865 26.593288 -12.906994
LeftToeBase 27.211720 -0.000000 -0.000000
RightUpLeg -2.732483 -5.745482 2.362183
RightLeg -2.285654 -0.000000 0.000000
RightFoot -21.808396 -27.255221 13.698991
RightToeBase 23.902715 -0.000000 -0.000000
271
root 18.585845 35.490474 -20.361706 -170.853819 0.031414 -178.351790
Spine -20.179964 -0.239882 1.263380
Head 8.674758 2.448786 1.337870
LeftShoulder -16.739009 -22.023024 8.467807
LeftArm -25.929333 -11.807174 -38.485999
LeftForeArm 0.870308 -0.000000 -3.134690
LeftHand -6.463525 -0.000000 -4.798757
LeftHandThumb1 -26.253704 0.000000 33.147579
RightShoulder -16.177953 -14.080203 2.044022
RightArm 1.578948 38.752106 57.131644
RightForeArm -28.331974 -0.000000 4.678934
RightHand -2.150675 -0.000000 11.771037
RightHandThumb1 -24.326973 -0.000000 -32.862282
LeftUpLeg -0.738238 9.162454 0.442450
LeftLeg -5.468700 -0.000000 0.000000
LeftFoot -22.673097 26.686917 -12.960908
LeftToeBase 26.937226 -0.000000 -0.000000
RightUpLeg -2.618645 -5.467993 2.327453
RightLeg -2.209206 -0.000000 0.000000
RightFoot -21.831289 -27.212989 13.742135
RightToeBase 23.808730 -0.000000 -0.000000
272
root 18.592146 35.488486 -20.390620 -171.090153 0.108132 -178.292411
Spine -19.960108 -0.160631 1.247404
Head 8.518128 2.345334 1.409831
LeftShoulder -16.503039 -22.038036 8.890890
LeftArm -24.960106 -11.019458 -37.263823
LeftForeArm 0.965691 -0.000000 -3.433865
LeftHand -6.558386 -0.000000 -4.619699
LeftHandThumb1 -26.253704 0.000000 33.147579
RightShoulder -15.961517 -14.029655 1.710763
RightArm 1.607027 38.741805 55.531062
RightForeArm -28.123735 -0.000000 4.847703
RightHand -2.472326 -0.000000 11.272754
RightHandThumb1 -24.326973 -0.000000 -32.862282
LeftUpLeg -0.438209 9.164793 0.549061
LeftLeg -5.460894 -0.000000 0.000000
LeftFoot -22.787274 26.736260 -13.011363
LeftToeBase 27.210758 -0.000000 -0.000000
RightUpLeg -2.356139 -5.393434 2.356702
RightLeg -2.172208 -0.000000 0.000000
RightFoot -21.879857 -27.201984 13.758859
RightToeBase 23.858122 -0.000000 -0.000000
